<svg xmlns="http://www.w3.org/2000/svg" viewBox="0 0 24 24" id="app-store-ios"><path fill="#2196F3" d="M0 21.714A2.285 2.285 0 0 0 2.286 24h19.429A2.285 2.285 0 0 0 24 21.714V2.286A2.285 2.285 0 0 0 21.714 0H2.286A2.285 2.285 0 0 0 0 2.286v19.428zm6.803-2.831a1.07 1.07 0 1 1-1.854-1.072l.766-1.323c.863-.263 1.569-.059 2.121.61l-1.034 1.784.001.001zm12.699-5.029a1.072 1.072 0 0 1 0 2.144l-.001-.001h-1.553l1.05 1.816a1.074 1.074 0 0 1-.391 1.463 1.074 1.074 0 0 1-1.463-.391c-1.762-3.048-3.08-5.341-3.965-6.863-.895-1.553-.257-3.107.381-3.632.702 1.216 1.752 3.038 3.155 5.464h2.787zm-15.003-.001h2.733l3.504-6.064-1.098-1.896a1.073 1.073 0 0 1 .391-1.463 1.074 1.074 0 0 1 1.463.391l.477.825.477-.825A1.07 1.07 0 1 1 14.3 5.893l-4.597 7.961h3.327c1.082 0 1.688 1.27 1.216 2.143H4.499c-.59 0-1.072-.482-1.072-1.072 0-.59.483-1.072 1.072-1.072z"></path></svg>